<?xml version="1.0" encoding="utf-8"?>
<!-- Generator: Adobe Illustrator 16.0.0, SVG Export Plug-In . SVG Version: 6.00 Build 0)  -->
<!DOCTYPE svg PUBLIC "-//W3C//DTD SVG 1.0//EN" "http://www.w3.org/TR/2001/REC-SVG-20010904/DTD/svg10.dtd">
<svg version="1.0" id="Layer_1" xmlns="http://www.w3.org/2000/svg" xmlns:xlink="http://www.w3.org/1999/xlink" x="0px" y="0px"
	 width="800px" height="800px" viewBox="0 0 800 800" enable-background="new 0 0 800 800" xml:space="preserve">
<g>
	<path fill-rule="evenodd" clip-rule="evenodd" fill="#FFFFFF" d="M400.11,548.961c0-123.766,0-247.358,0-371.088
		c123.8,0,247.513,0,371.339,0c0,123.707,0,247.294,0,371.088C647.726,548.961,524.018,548.961,400.11,548.961z"/>
	<path fill-rule="evenodd" clip-rule="evenodd" d="M638.929,336.083c0-43.878,0-87.755,0-131.777c35.368,0,70.533,0,105.885,0
		c0,105.926,0,211.871,0,318.119c-0.845,0.039-1.74,0.118-2.635,0.118c-33.725-0.009-67.448-0.041-101.172,0.004
		c-1.777,0.004-2.814-0.639-3.862-1.951c-34.171-42.8-68.373-85.575-102.574-128.352c-0.417-0.521-0.885-1.003-1.763-1.993
		c0,44.343,0,88.102,0,132.089c-35.535,0-70.74,0-106.062,0c0-106.02,0-211.969,0-318.178c1.02,0,1.927,0,2.835,0
		c33.336,0.006,66.671,0.04,100.005-0.041c2.279-0.005,3.636,0.733,5.016,2.46c33.886,42.431,67.826,84.819,101.758,127.213
		c0.665,0.831,1.34,1.653,2.009,2.479C638.556,336.21,638.742,336.147,638.929,336.083z"/>
	<path fill-rule="evenodd" clip-rule="evenodd" d="M28.551,548.798c0-123.766,0-247.358,0-371.089c123.801,0,247.513,0,371.339,0
		c0,123.708,0,247.294,0,371.089C276.166,548.798,152.458,548.798,28.551,548.798z"/>
	<path fill-rule="evenodd" clip-rule="evenodd" d="M368.515,281.319c-26.339-49.207-90.811-94.847-171.095-81.712
		c-77.289,12.645-134.931,77.865-138.566,155.732c-3.936,84.314,54.124,153.709,130.036,170.263
		c76.494,16.681,147.586-21.887,179.714-80.008c-30.67-17.554-61.342-35.108-92.013-52.665
		c-20.151,34.113-64.28,39.423-91.547,14.995c-25.857-23.167-26.896-62.826-1.827-87.321c27.568-26.938,74.548-20.857,93.442,13.263
		C307.281,316.35,337.899,298.833,368.515,281.319z"/>
	<path fill-rule="evenodd" clip-rule="evenodd" d="M430.462,603.148c0,5.946,0,11.892,0,17.999c-4.989,0-9.768,0-14.761,0
		c0-14.942,0-29.887,0-45.255c2.659,0,5.45,0.268,8.17-0.059c4.882-0.587,8.215,1.054,10.979,5.254
		c3.061,4.647,6.899,8.779,10.844,13.688c0-6.604,0-12.575,0-18.712c5.104,0,9.88,0,14.85,0c0,14.952,0,29.896,0,45.248
		c-2.771,0-5.646-0.318-8.424,0.071c-4.709,0.661-7.755-1.124-10.406-4.967c-3.246-4.707-7.09-9.004-10.676-13.479
		C430.846,603.007,430.653,603.078,430.462,603.148z"/>
	<path fill-rule="evenodd" clip-rule="evenodd" d="M354.568,602.44c0,6.651,0,12.588,0,18.695c-5.124,0-9.963,0-14.949,0
		c0-15.011,0-29.953,0-45.226c4.769,0,9.486-0.06,14.198,0.066c0.662,0.018,1.425,0.837,1.931,1.457
		c4.072,4.993,8.094,10.029,12.138,15.046c0.47,0.582,0.979,1.13,1.817,2.093c0-6.416,0-12.345,0-18.476c5.08,0,9.923,0,14.947,0
		c0,14.908,0,29.782,0,44.974c-0.532,0.071-1.167,0.226-1.801,0.229c-3.728,0.023-7.459,0.106-11.18-0.052
		c-0.992-0.042-2.248-0.611-2.877-1.362c-3.988-4.759-7.831-9.641-11.729-14.476C356.404,604.592,355.713,603.799,354.568,602.44z"
		/>
	<path fill-rule="evenodd" clip-rule="evenodd" d="M587.885,609.001c-1.718,3.878-3.233,7.174-4.632,10.519
		c-0.548,1.313-1.263,1.918-2.764,1.858c-2.947-0.117-5.906,0.05-8.85-0.103c-0.646-0.032-1.689-0.82-1.808-1.408
		c-2.863-14.376-5.626-28.771-8.399-43.164c-0.026-0.137,0.056-0.293,0.149-0.739c4.639,0,9.342-0.041,14.04,0.074
		c0.406,0.01,1.021,1,1.146,1.614c1.157,5.754,2.228,11.521,3.863,17.39c2.333-5.599,4.667-11.195,7.236-17.357
		c2.533,6.026,4.883,11.619,7.234,17.211c0.19-0.032,0.381-0.064,0.571-0.096c0.994-5.139,1.931-10.288,3.001-15.409
		c0.857-4.094-0.094-3.438,4.137-3.488c3.777-0.046,7.556-0.01,11.611-0.01c-1.125,6.016-2.162,11.639-3.232,17.256
		c-1.668,8.763-3.397,17.513-5.005,26.287c-0.265,1.446-0.794,1.951-2.254,1.905c-3.026-0.097-6.063,0.068-9.082-0.098
		c-0.768-0.043-1.839-0.753-2.174-1.445C591.059,616.463,589.645,613.028,587.885,609.001z"/>
	<path fill-rule="evenodd" clip-rule="evenodd" d="M176.146,606.608c2.812,4.776,5.622,9.553,8.667,14.729
		c-5.594,0-10.691,0.041-15.786-0.062c-0.552-0.012-1.282-0.753-1.597-1.336c-1.51-2.797-2.904-5.656-4.341-8.492
		c-1.892-3.735-1.893-3.735-6.516-3.261c0,4.236,0,8.523,0,12.964c-5.203,0-10.04,0-15.031,0c0-15.043,0-29.982,0-45.029
		c0.505-0.081,0.947-0.219,1.391-0.216c9.007,0.053,18.018-0.029,27.018,0.234c6.827,0.199,12.896,5.257,14.401,11.898
		c1.484,6.546-0.384,12.114-5.72,16.372c-0.727,0.58-1.476,1.133-2.21,1.702C176.366,606.155,176.345,606.246,176.146,606.608z
		 M156.58,596.635c3.483,0,6.952,0.202,10.381-0.082c1.847-0.153,2.862-1.73,2.825-3.696c-0.036-1.966-1.066-3.428-2.972-3.555
		c-3.364-0.223-6.755-0.063-10.234-0.063C156.58,591.799,156.58,594.101,156.58,596.635z"/>
	<path fill-rule="evenodd" clip-rule="evenodd" d="M682.636,608.094c0,4.395,0,8.646,0,13.055c-5.014,0-9.861,0-14.884,0
		c0-14.989,0-29.93,0-45.101c0.828-0.051,1.656-0.149,2.486-0.146c8.151,0.026,16.306-0.014,24.456,0.127
		c9.695,0.167,16.674,7.342,16.301,16.824c-0.186,4.762-2.609,8.519-6.226,11.521c-0.771,0.64-1.624,1.178-2.653,1.917
		c2.86,4.849,5.716,9.691,8.86,15.021c-1.172,0-1.959,0.003-2.745-0.001c-3.961-0.011-7.923-0.093-11.88-0.003
		c-1.592,0.035-2.539-0.373-3.21-1.931c-1.163-2.702-2.594-5.29-3.901-7.93C687.348,607.627,687.352,607.627,682.636,608.094z
		 M682.757,589.243c0,2.563,0,4.918,0,7.463c3.36,0,6.6,0.092,9.829-0.035c1.894-0.075,3.537-1.967,3.421-3.77
		c-0.12-1.878-1.098-3.463-3.014-3.594C689.628,589.076,686.234,589.243,682.757,589.243z"/>
	<path fill-rule="evenodd" clip-rule="evenodd" d="M482.539,604.358c0,1.734,0,3.099,0,4.786c8.115,0,16.143,0,24.305,0
		c0,4.167,0,8.011,0,12.011c-13.101,0-26.109,0-39.254,0c-0.067-0.672-0.181-1.271-0.183-1.872
		c-0.024-13.753-0.027-27.506-0.067-41.261c-0.004-1.324,0.094-2.172,1.822-2.161c12.199,0.081,24.398,0.071,36.597,0.099
		c0.3,0.001,0.6,0.098,1.08,0.183c0,4.262,0,8.49,0,13.02c-8.176,0-16.207,0-24.447,0c0.082,1.505,0.147,2.7,0.223,4.06
		c6.846,0,13.506,0,20.337,0c0,3.7,0,7.232,0,11.137C496.196,604.358,489.425,604.358,482.539,604.358z"/>
	<path fill-rule="evenodd" clip-rule="evenodd" d="M615.705,597.968c0.463-13.157,11.264-23.499,24.091-23.067
		c13.291,0.447,23.653,11.426,23.16,24.537c-0.497,13.212-11.644,23.357-25.089,22.835
		C625.504,621.794,615.263,610.562,615.705,597.968z M639.267,589.997c-4.559-0.053-8.388,3.734-8.474,8.378
		c-0.09,4.874,3.706,8.799,8.526,8.817c4.466,0.017,8.516-3.942,8.595-8.403C648,594.031,644.087,590.054,639.267,589.997z"/>
	<path fill-rule="evenodd" clip-rule="evenodd" d="M283.619,598.501c0.062,12.894-10.344,23.724-22.841,23.775
		c-13.569,0.056-24.271-10.268-24.374-23.51c-0.102-12.98,10.437-23.623,23.413-23.646
		C273.229,575.097,283.556,585.241,283.619,598.501z M268.653,598.767c0.03-4.844-3.845-8.735-8.681-8.721
		c-4.557,0.015-8.439,3.873-8.503,8.446c-0.065,4.741,3.91,8.747,8.704,8.772C264.598,607.289,268.626,603.252,268.653,598.767z"/>
	<path fill-rule="evenodd" clip-rule="evenodd" d="M311.184,575.112c13.063-0.075,23.522,10.155,23.621,23.101
		c0.12,15.666-12.604,23.924-22.795,24.04c-13.631,0.155-24.284-10.172-24.362-23.438
		C287.569,585.599,297.906,575.189,311.184,575.112z M319.811,598.699c-0.001-4.785-3.771-8.646-8.479-8.685
		c-4.645-0.04-8.661,3.888-8.718,8.525c-0.056,4.701,4.056,8.781,8.781,8.713C315.928,607.188,319.813,603.239,319.811,598.699z"/>
	<path fill-rule="evenodd" clip-rule="evenodd" d="M744.057,597.633c5.771,7.762,11.503,15.47,17.477,23.501
		c-0.947,0.075-1.58,0.17-2.214,0.171c-4.891,0.013-9.782-0.065-14.672,0.048c-1.664,0.039-2.667-0.448-3.577-1.873
		c-3.092-4.833-6.332-9.57-9.896-14.915c0,5.865,0,11.127,0,16.564c-5.219,0-10.133,0-15.216,0c0-14.992,0-29.926,0-45.048
		c4.978,0,9.898,0,15.049,0c0,4.665,0,9.2,0,13.737c0.172,0.077,0.343,0.155,0.514,0.232c1.563-2.043,3.114-4.095,4.69-6.126
		c2.044-2.632,3.609-6.248,6.304-7.591c2.684-1.337,6.508-0.406,9.832-0.437c2.921-0.026,5.842-0.005,9.344-0.005
		C755.587,583.418,749.891,590.441,744.057,597.633z"/>
	<path fill-rule="evenodd" clip-rule="evenodd" d="M85.913,621.034c2.17-6.928,4.305-13.714,6.42-20.507
		c2.352-7.549,4.729-15.089,6.987-22.665c0.462-1.55,1.165-2.033,2.765-2.009c6.211,0.096,12.424,0.057,18.636,0.023
		c1.18-0.007,1.986,0.108,2.417,1.498c4.421,14.292,8.916,28.559,13.383,42.835c0.065,0.208,0.033,0.446,0.072,1.102
		c-3.343,0-6.632,0-9.923,0c-5.665,0-5.729,0.018-7.274-5.421c-0.49-1.727-1.338-2.344-3.102-2.291
		c-3.49,0.105-6.988,0.09-10.479-0.013c-1.377-0.04-1.911,0.52-2.237,1.749c-0.514,1.936-0.628,4.616-1.93,5.53
		c-1.431,1.005-4.015,0.412-6.097,0.435c-2.949,0.033-5.9-0.007-8.851-0.024C86.555,621.275,86.408,621.19,85.913,621.034z
		 M111.533,589.056c-0.149,0.021-0.3,0.039-0.449,0.059c-1.225,4.351-2.449,8.701-3.719,13.212c2.752,0,5.239,0,8.018,0
		C114.051,597.732,112.792,593.395,111.533,589.056z"/>
	<path fill-rule="evenodd" clip-rule="evenodd" d="M84.802,586.791c-4.049,2.316-7.947,4.547-11.795,6.749
		c-6.938-5.341-11.782-5.684-15.719-1.191c-3.283,3.747-3.068,9.268,0.501,12.865c4.042,4.078,9.025,3.534,15.157-1.719
		c0.501,0.271,1.046,0.548,1.572,0.853c3.417,1.981,6.832,3.969,10.238,5.95c-4.106,8.399-15.616,13.604-25.184,11.467
		c-10.967-2.448-18.524-11.623-18.781-22.795c-0.246-10.77,6.946-20.426,17.295-23.22C68.495,572.94,79.67,577.502,84.802,586.791z"
		/>
	<path fill-rule="evenodd" clip-rule="evenodd" d="M234.364,589.173c-4.8,0-9.421,0-14.246,0c0,10.777,0,21.305,0,31.983
		c-5.676,0-11.141,0-16.854,0c0-10.615,0-21.136,0-31.956c-4.843,0-9.45,0-14.172,0c0-4.528,0-8.753,0-13.138
		c15.153,0,30.16,0,45.271,0C234.364,580.407,234.364,584.58,234.364,589.173z"/>
	<path fill-rule="evenodd" clip-rule="evenodd" d="M557.389,576.067c0,4.401,0,8.627,0,13.058c-4.73,0-9.286,0-14.07,0
		c0,10.735,0,21.267,0,31.991c-5.687,0-11.146,0-16.848,0c0-10.519,0-21.04,0-31.988c-4.903,0-9.584,0-14.33,0
		c0-4.59,0-8.753,0-13.061C527.282,576.067,542.307,576.067,557.389,576.067z"/>
	<path fill-rule="evenodd" clip-rule="evenodd" fill="#FFFFFF" d="M368.515,281.319c-30.615,17.514-61.233,35.03-91.855,52.548
		c-18.895-34.12-65.874-40.201-93.442-13.263c-25.068,24.495-24.03,64.154,1.827,87.321c27.267,24.428,71.396,19.118,91.547-14.995
		c30.671,17.557,61.343,35.111,92.013,52.665c-32.128,58.121-103.22,96.688-179.714,80.008
		c-75.912-16.554-133.972-85.949-130.036-170.263c3.636-77.867,61.277-143.087,138.566-155.732
		C277.704,186.473,342.176,232.112,368.515,281.319z"/>
</g>
</svg>
